<mxfile host="65bd71144e">
    <diagram id="5Dg7UfHQ2j0TUhJt5JD9" name="Page-1">
        <mxGraphModel dx="1617" dy="1214" grid="0" gridSize="10" guides="1" tooltips="1" connect="1" arrows="1" fold="1" page="1" pageScale="1" pageWidth="827" pageHeight="1169" background="#ffffff" math="0" shadow="1">
            <root>
                <mxCell id="0"/>
                <mxCell id="1" parent="0"/>
                <mxCell id="2" value="Consumer" style="swimlane;fontStyle=0;childLayout=stackLayout;horizontal=1;startSize=26;fillColor=none;horizontalStack=0;resizeParent=1;resizeParentMax=0;resizeLast=0;collapsible=1;marginBottom=0;hachureGap=4;fontFamily=Architects Daughter;fontSource=https%3A%2F%2Ffonts.googleapis.com%2Fcss%3Ffamily%3DArchitects%2BDaughter;fontSize=20;strokeColor=#000000;strokeWidth=2;rounded=1;fontColor=#000000;sketch=1;curveFitting=1;jiggle=2;" vertex="1" parent="1">
                    <mxGeometry x="10" y="239" width="221" height="104" as="geometry">
                        <mxRectangle x="15" y="94" width="128" height="36" as="alternateBounds"/>
                    </mxGeometry>
                </mxCell>
                <mxCell id="3" value="+userID : In... + actor" style="text;strokeColor=#000000;fillColor=none;align=left;verticalAlign=top;spacingLeft=4;spacingRight=4;overflow=hidden;rotatable=0;points=[[0,0.5],[1,0.5]];portConstraint=eastwest;hachureGap=4;fontFamily=Architects Daughter;fontSource=https%3A%2F%2Ffonts.googleapis.com%2Fcss%3Ffamily%3DArchitects%2BDaughter;fontSize=20;rounded=1;fontColor=#000000;sketch=1;curveFitting=1;jiggle=2;" vertex="1" parent="2">
                    <mxGeometry y="26" width="221" height="26" as="geometry"/>
                </mxCell>
                <mxCell id="4" value=" " style="text;strokeColor=#000000;fillColor=none;align=left;verticalAlign=top;spacingLeft=4;spacingRight=4;overflow=hidden;rotatable=0;points=[[0,0.5],[1,0.5]];portConstraint=eastwest;hachureGap=4;fontFamily=Architects Daughter;fontSource=https%3A%2F%2Ffonts.googleapis.com%2Fcss%3Ffamily%3DArchitects%2BDaughter;fontSize=20;rounded=1;fontColor=#000000;sketch=1;curveFitting=1;jiggle=2;" vertex="1" parent="2">
                    <mxGeometry y="52" width="221" height="26" as="geometry"/>
                </mxCell>
                <mxCell id="5" value=" " style="text;strokeColor=none;fillColor=none;align=left;verticalAlign=top;spacingLeft=4;spacingRight=4;overflow=hidden;rotatable=0;points=[[0,0.5],[1,0.5]];portConstraint=eastwest;hachureGap=4;fontFamily=Architects Daughter;fontSource=https%3A%2F%2Ffonts.googleapis.com%2Fcss%3Ffamily%3DArchitects%2BDaughter;fontSize=20;rounded=1;fontColor=#000000;sketch=1;curveFitting=1;jiggle=2;" vertex="1" parent="2">
                    <mxGeometry y="78" width="221" height="26" as="geometry"/>
                </mxCell>
                <mxCell id="6" value="Home" style="swimlane;fontStyle=0;childLayout=stackLayout;horizontal=1;startSize=26;fillColor=none;horizontalStack=0;resizeParent=1;resizeParentMax=0;resizeLast=0;collapsible=1;marginBottom=0;hachureGap=4;fontFamily=Architects Daughter;fontSource=https%3A%2F%2Ffonts.googleapis.com%2Fcss%3Ffamily%3DArchitects%2BDaughter;fontSize=20;strokeColor=#000000;strokeWidth=2;rounded=1;fontColor=#000000;sketch=1;curveFitting=1;jiggle=2;" vertex="1" parent="1">
                    <mxGeometry x="276" y="210" width="247" height="152" as="geometry"/>
                </mxCell>
                <mxCell id="7" value="+ address : String[1]&#10;+ PostcodeL Int... + Home&#10;" style="text;strokeColor=#000000;fillColor=none;align=left;verticalAlign=top;spacingLeft=4;spacingRight=4;overflow=hidden;rotatable=0;points=[[0,0.5],[1,0.5]];portConstraint=eastwest;hachureGap=4;fontFamily=Architects Daughter;fontSource=https%3A%2F%2Ffonts.googleapis.com%2Fcss%3Ffamily%3DArchitects%2BDaughter;fontSize=20;rounded=1;fontColor=#000000;sketch=1;curveFitting=1;jiggle=2;" vertex="1" parent="6">
                    <mxGeometry y="26" width="247" height="74" as="geometry"/>
                </mxCell>
                <mxCell id="8" value=" " style="text;strokeColor=#000000;fillColor=none;align=left;verticalAlign=top;spacingLeft=4;spacingRight=4;overflow=hidden;rotatable=0;points=[[0,0.5],[1,0.5]];portConstraint=eastwest;hachureGap=4;fontFamily=Architects Daughter;fontSource=https%3A%2F%2Ffonts.googleapis.com%2Fcss%3Ffamily%3DArchitects%2BDaughter;fontSize=20;rounded=1;fontColor=#000000;sketch=1;curveFitting=1;jiggle=2;" vertex="1" parent="6">
                    <mxGeometry y="100" width="247" height="26" as="geometry"/>
                </mxCell>
                <mxCell id="9" value=" " style="text;strokeColor=none;fillColor=none;align=left;verticalAlign=top;spacingLeft=4;spacingRight=4;overflow=hidden;rotatable=0;points=[[0,0.5],[1,0.5]];portConstraint=eastwest;hachureGap=4;fontFamily=Architects Daughter;fontSource=https%3A%2F%2Ffonts.googleapis.com%2Fcss%3Ffamily%3DArchitects%2BDaughter;fontSize=20;rounded=1;fontColor=#000000;sketch=1;curveFitting=1;jiggle=2;" vertex="1" parent="6">
                    <mxGeometry y="126" width="247" height="26" as="geometry"/>
                </mxCell>
                <mxCell id="10" value="~hwDevices~" style="swimlane;fontStyle=0;childLayout=stackLayout;horizontal=1;startSize=26;fillColor=none;horizontalStack=0;resizeParent=1;resizeParentMax=0;resizeLast=0;collapsible=1;marginBottom=0;hachureGap=4;fontFamily=Architects Daughter;fontSource=https%3A%2F%2Ffonts.googleapis.com%2Fcss%3Ffamily%3DArchitects%2BDaughter;fontSize=20;strokeColor=#000000;strokeWidth=2;rounded=1;fontColor=#000000;sketch=1;curveFitting=1;jiggle=2;" vertex="1" parent="1">
                    <mxGeometry x="580" y="198" width="223" height="240" as="geometry"/>
                </mxCell>
                <mxCell id="11" value="+ name : String[1]&#10;+ location : Room..." style="text;strokeColor=#000000;fillColor=none;align=left;verticalAlign=top;spacingLeft=4;spacingRight=4;overflow=hidden;rotatable=0;points=[[0,0.5],[1,0.5]];portConstraint=eastwest;hachureGap=4;fontFamily=Architects Daughter;fontSource=https%3A%2F%2Ffonts.googleapis.com%2Fcss%3Ffamily%3DArchitects%2BDaughter;fontSize=20;rounded=1;fontColor=#000000;sketch=1;curveFitting=1;jiggle=2;" vertex="1" parent="10">
                    <mxGeometry y="26" width="223" height="65" as="geometry"/>
                </mxCell>
                <mxCell id="12" value="+ on()&#10;+ off()&#10;+ Status()&#10;+ Consumption()" style="text;strokeColor=#000000;fillColor=none;align=left;verticalAlign=top;spacingLeft=4;spacingRight=4;overflow=hidden;rotatable=0;points=[[0,0.5],[1,0.5]];portConstraint=eastwest;hachureGap=4;fontFamily=Architects Daughter;fontSource=https%3A%2F%2Ffonts.googleapis.com%2Fcss%3Ffamily%3DArchitects%2BDaughter;fontSize=20;rounded=1;fontColor=#000000;sketch=1;curveFitting=1;jiggle=2;" vertex="1" parent="10">
                    <mxGeometry y="91" width="223" height="123" as="geometry"/>
                </mxCell>
                <mxCell id="13" value=" " style="text;strokeColor=none;fillColor=none;align=left;verticalAlign=top;spacingLeft=4;spacingRight=4;overflow=hidden;rotatable=0;points=[[0,0.5],[1,0.5]];portConstraint=eastwest;hachureGap=4;fontFamily=Architects Daughter;fontSource=https%3A%2F%2Ffonts.googleapis.com%2Fcss%3Ffamily%3DArchitects%2BDaughter;fontSize=20;rounded=1;fontColor=#000000;sketch=1;curveFitting=1;jiggle=2;" vertex="1" parent="10">
                    <mxGeometry y="214" width="223" height="26" as="geometry"/>
                </mxCell>
                <mxCell id="29" style="edgeStyle=orthogonalEdgeStyle;rounded=1;html=1;exitX=0.5;exitY=0;exitDx=0;exitDy=0;entryX=0.5;entryY=1;entryDx=0;entryDy=0;strokeColor=#000000;strokeWidth=3;fontColor=#000000;endArrow=block;endFill=0;sketch=1;curveFitting=1;jiggle=2;" edge="1" parent="1" source="14" target="24">
                    <mxGeometry relative="1" as="geometry"/>
                </mxCell>
                <mxCell id="14" value="~hwPowerSupply~&#10;ElectricVehicle" style="swimlane;fontStyle=0;childLayout=stackLayout;horizontal=1;startSize=66;fillColor=none;horizontalStack=0;resizeParent=1;resizeParentMax=0;resizeLast=0;collapsible=1;marginBottom=0;hachureGap=4;fontFamily=Architects Daughter;fontSource=https%3A%2F%2Ffonts.googleapis.com%2Fcss%3Ffamily%3DArchitects%2BDaughter;fontSize=20;strokeColor=#000000;strokeWidth=2;rounded=1;fontColor=#000000;sketch=1;curveFitting=1;jiggle=2;" vertex="1" parent="1">
                    <mxGeometry x="45" y="718" width="329" height="254" as="geometry"/>
                </mxCell>
                <mxCell id="15" value="+ ChargingIndicator : Boolean[1]&#10;+ StartTime : NFP_DateTime[1]&#10;+ StopeTimer : NFP_DateTime[1]" style="text;strokeColor=#000000;fillColor=none;align=left;verticalAlign=top;spacingLeft=4;spacingRight=4;overflow=hidden;rotatable=0;points=[[0,0.5],[1,0.5]];portConstraint=eastwest;hachureGap=4;fontFamily=Architects Daughter;fontSource=https%3A%2F%2Ffonts.googleapis.com%2Fcss%3Ffamily%3DArchitects%2BDaughter;fontSize=20;rounded=1;fontColor=#000000;sketch=1;curveFitting=1;jiggle=2;" vertex="1" parent="14">
                    <mxGeometry y="66" width="329" height="95" as="geometry"/>
                </mxCell>
                <mxCell id="16" value="+ setChargingTime()&#10;+ Plug()" style="text;strokeColor=#000000;fillColor=none;align=left;verticalAlign=top;spacingLeft=4;spacingRight=4;overflow=hidden;rotatable=0;points=[[0,0.5],[1,0.5]];portConstraint=eastwest;hachureGap=4;fontFamily=Architects Daughter;fontSource=https%3A%2F%2Ffonts.googleapis.com%2Fcss%3Ffamily%3DArchitects%2BDaughter;fontSize=20;rounded=1;fontColor=#000000;sketch=1;curveFitting=1;jiggle=2;" vertex="1" parent="14">
                    <mxGeometry y="161" width="329" height="67" as="geometry"/>
                </mxCell>
                <mxCell id="17" value=" " style="text;strokeColor=none;fillColor=none;align=left;verticalAlign=top;spacingLeft=4;spacingRight=4;overflow=hidden;rotatable=0;points=[[0,0.5],[1,0.5]];portConstraint=eastwest;hachureGap=4;fontFamily=Architects Daughter;fontSource=https%3A%2F%2Ffonts.googleapis.com%2Fcss%3Ffamily%3DArchitects%2BDaughter;fontSize=20;rounded=1;fontColor=#000000;sketch=1;curveFitting=1;jiggle=2;" vertex="1" parent="14">
                    <mxGeometry y="228" width="329" height="26" as="geometry"/>
                </mxCell>
                <mxCell id="30" style="edgeStyle=orthogonalEdgeStyle;rounded=1;html=1;exitX=1;exitY=0.5;exitDx=0;exitDy=0;entryX=0;entryY=0.5;entryDx=0;entryDy=0;strokeColor=#000000;strokeWidth=3;fontColor=#000000;endArrow=block;endFill=0;sketch=1;curveFitting=1;jiggle=2;" edge="1" parent="1" source="18" target="24">
                    <mxGeometry relative="1" as="geometry"/>
                </mxCell>
                <mxCell id="18" value="~hwActuator~&lt;br&gt;TumbleDryer" style="whiteSpace=wrap;html=1;rounded=1;strokeColor=#000000;fontColor=#000000;fillColor=none;strokeWidth=2;sketch=1;curveFitting=1;jiggle=2;" vertex="1" parent="1">
                    <mxGeometry x="40" y="486" width="120" height="44" as="geometry"/>
                </mxCell>
                <mxCell id="32" style="edgeStyle=orthogonalEdgeStyle;rounded=1;html=1;exitX=1;exitY=0.5;exitDx=0;exitDy=0;entryX=0;entryY=0.25;entryDx=0;entryDy=0;strokeColor=#000000;strokeWidth=3;fontColor=#000000;endArrow=block;endFill=0;sketch=1;curveFitting=1;jiggle=2;" edge="1" parent="1" source="19" target="24">
                    <mxGeometry relative="1" as="geometry"/>
                </mxCell>
                <mxCell id="19" value="~hwActuator~&lt;br&gt;WashingMachine" style="whiteSpace=wrap;html=1;rounded=1;strokeColor=#000000;fontColor=#000000;fillColor=none;strokeWidth=2;sketch=1;curveFitting=1;jiggle=2;" vertex="1" parent="1">
                    <mxGeometry x="58" y="562" width="120" height="44" as="geometry"/>
                </mxCell>
                <mxCell id="35" style="edgeStyle=orthogonalEdgeStyle;rounded=1;html=1;exitX=0.5;exitY=0;exitDx=0;exitDy=0;entryX=1;entryY=0.5;entryDx=0;entryDy=0;strokeColor=#000000;strokeWidth=3;fontColor=#000000;endArrow=block;endFill=0;sketch=1;curveFitting=1;jiggle=2;" edge="1" parent="1" source="20" target="23">
                    <mxGeometry relative="1" as="geometry"/>
                </mxCell>
                <mxCell id="20" value="~hwActuator~&lt;br&gt;Light" style="whiteSpace=wrap;html=1;rounded=1;strokeColor=#000000;fontColor=#000000;fillColor=none;strokeWidth=2;sketch=1;curveFitting=1;jiggle=2;" vertex="1" parent="1">
                    <mxGeometry x="693" y="585" width="120" height="44" as="geometry"/>
                </mxCell>
                <mxCell id="33" style="edgeStyle=orthogonalEdgeStyle;rounded=1;html=1;exitX=0.5;exitY=0;exitDx=0;exitDy=0;entryX=0;entryY=1;entryDx=0;entryDy=0;strokeColor=#000000;strokeWidth=3;fontColor=#000000;endArrow=block;endFill=0;sketch=1;curveFitting=1;jiggle=2;" edge="1" parent="1" source="21" target="23">
                    <mxGeometry relative="1" as="geometry"/>
                </mxCell>
                <mxCell id="21" value="~hwActuator~&lt;br&gt;TV" style="whiteSpace=wrap;html=1;rounded=1;strokeColor=#000000;fontColor=#000000;fillColor=none;strokeWidth=2;sketch=1;curveFitting=1;jiggle=2;" vertex="1" parent="1">
                    <mxGeometry x="380" y="606" width="120" height="44" as="geometry"/>
                </mxCell>
                <mxCell id="34" style="edgeStyle=orthogonalEdgeStyle;rounded=1;html=1;exitX=1;exitY=0.5;exitDx=0;exitDy=0;entryX=0.25;entryY=1;entryDx=0;entryDy=0;strokeColor=#000000;strokeWidth=3;fontColor=#000000;endArrow=block;endFill=0;sketch=1;curveFitting=1;jiggle=2;" edge="1" parent="1" source="22" target="23">
                    <mxGeometry relative="1" as="geometry"/>
                </mxCell>
                <mxCell id="22" value="~hwActuator~&lt;br&gt;Oven" style="whiteSpace=wrap;html=1;rounded=1;strokeColor=#000000;fontColor=#000000;fillColor=none;strokeWidth=2;sketch=1;curveFitting=1;jiggle=2;" vertex="1" parent="1">
                    <mxGeometry x="380" y="708" width="120" height="44" as="geometry"/>
                </mxCell>
                <mxCell id="23" value="UncontrollableLoad" style="whiteSpace=wrap;html=1;rounded=1;strokeColor=#000000;fontColor=#000000;fillColor=none;strokeWidth=2;sketch=1;curveFitting=1;jiggle=2;" vertex="1" parent="1">
                    <mxGeometry x="583" y="511" width="120" height="44" as="geometry"/>
                </mxCell>
                <mxCell id="28" style="edgeStyle=orthogonalEdgeStyle;rounded=1;html=1;exitX=0.5;exitY=0;exitDx=0;exitDy=0;entryX=0;entryY=0.5;entryDx=0;entryDy=0;strokeColor=#000000;strokeWidth=3;fontColor=#000000;endArrow=block;endFill=0;sketch=1;curveFitting=1;jiggle=2;" edge="1" parent="1" source="24" target="13">
                    <mxGeometry relative="1" as="geometry"/>
                </mxCell>
                <mxCell id="24" value="ControllableLoad" style="whiteSpace=wrap;html=1;rounded=1;strokeColor=#000000;fontColor=#000000;fillColor=none;strokeWidth=2;sketch=1;curveFitting=1;jiggle=2;" vertex="1" parent="1">
                    <mxGeometry x="312" y="515" width="120" height="44" as="geometry"/>
                </mxCell>
                <mxCell id="36" style="edgeStyle=orthogonalEdgeStyle;rounded=1;html=1;exitX=0.5;exitY=0;exitDx=0;exitDy=0;entryX=0.5;entryY=1;entryDx=0;entryDy=0;strokeColor=#000000;strokeWidth=3;fontColor=#000000;endArrow=block;endFill=0;sketch=1;curveFitting=1;jiggle=2;" edge="1" parent="1" source="25" target="23">
                    <mxGeometry relative="1" as="geometry"/>
                </mxCell>
                <mxCell id="25" value="~hwActuator~&lt;br&gt;Stove" style="whiteSpace=wrap;html=1;rounded=1;strokeColor=#000000;fontColor=#000000;fillColor=none;strokeWidth=2;sketch=1;curveFitting=1;jiggle=2;" vertex="1" parent="1">
                    <mxGeometry x="629" y="714" width="120" height="44" as="geometry"/>
                </mxCell>
                <mxCell id="26" style="edgeStyle=none;rounded=1;html=1;exitX=0;exitY=0.5;exitDx=0;exitDy=0;entryX=0.996;entryY=-0.032;entryDx=0;entryDy=0;entryPerimeter=0;fontColor=#000000;strokeWidth=4;strokeColor=#000000;endArrow=diamondThin;endFill=1;sketch=1;curveFitting=1;jiggle=2;" edge="1" parent="1" source="7" target="4">
                    <mxGeometry relative="1" as="geometry"/>
                </mxCell>
                <mxCell id="27" style="edgeStyle=none;rounded=1;html=1;exitX=0;exitY=0.5;exitDx=0;exitDy=0;entryX=1;entryY=0.5;entryDx=0;entryDy=0;strokeColor=#000000;strokeWidth=4;fontColor=#000000;endArrow=diamondThin;endFill=1;sketch=1;curveFitting=1;jiggle=2;" edge="1" parent="1" source="12" target="7">
                    <mxGeometry relative="1" as="geometry"/>
                </mxCell>
            </root>
        </mxGraphModel>
    </diagram>
</mxfile>